<svg width="101" height="21" viewBox="0 0 101 21" fill="none" xmlns="http://www.w3.org/2000/svg">
<g clip-path="url(#clip0_120_42)">
<path d="M0 4.66666C0 2.08934 2.08934 0 4.66666 0H96.0931C98.6702 0 100.76 2.08934 100.76 4.66666V16.3333C100.76 18.9107 98.6702 21 96.0931 21H4.66665C2.08933 21 0 18.9107 0 16.3333V4.66666Z" fill="#F0F0F0"/>
<path d="M9.54546 14.5833H8.0288L5.03046 5.48334H6.44213L8.78713 13.1367L11.1321 5.48334H12.5321L9.54546 14.5833ZM15.3051 14.77C13.5084 14.77 12.3067 13.4283 12.3067 11.5383C12.3067 9.67167 13.4734 8.33 15.3051 8.33C16.7867 8.33 18.0351 9.46167 18.0351 11.4683V11.9467H13.6134C13.6951 13.0433 14.2434 13.755 15.3051 13.755C16.0751 13.755 16.6001 13.3 16.7051 12.8683H17.9767C17.7901 13.9067 16.7284 14.77 15.3051 14.77ZM13.6251 11.0717H16.7517C16.7167 10.0917 16.1217 9.42667 15.2701 9.42667C14.2784 9.42667 13.7651 10.0683 13.6251 11.0717ZM20.6693 14.5833H19.4443V8.51667H20.6693V10.0917C21.066 8.855 21.8943 8.44667 23.1193 8.44667V9.66C21.6843 9.66 20.6693 10.0917 20.6693 11.6083V14.5833ZM24.7 7.22167C24.1867 7.22167 23.8367 6.87167 23.8367 6.35833C23.8367 5.845 24.1867 5.50668 24.7 5.50668C25.225 5.50668 25.5633 5.845 25.5633 6.35833C25.5633 6.87167 25.225 7.22167 24.7 7.22167ZM25.3417 14.5833H24.07V8.51667H25.3417V14.5833ZM29.0736 14.5833H27.8019V9.61333H26.4836V8.51667H27.8019V7.82833C27.8019 6.13667 28.5603 5.27334 30.1236 5.36668L30.5669 5.37834V6.475H30.3336C29.4353 6.475 29.0853 6.80167 29.0736 7.68833V8.51667H30.5786V9.61333H29.0736V14.5833ZM32.379 7.22167C31.8657 7.22167 31.5157 6.87167 31.5157 6.35833C31.5157 5.845 31.8657 5.50668 32.379 5.50668C32.904 5.50668 33.2423 5.845 33.2423 6.35833C33.2423 6.87167 32.904 7.22167 32.379 7.22167ZM33.0207 14.5833H31.749V8.51667H33.0207V14.5833ZM37.4876 14.77C35.691 14.77 34.4893 13.4283 34.4893 11.5383C34.4893 9.67167 35.656 8.33 37.4876 8.33C38.9693 8.33 40.2176 9.46167 40.2176 11.4683V11.9467H35.796C35.8776 13.0433 36.426 13.755 37.4876 13.755C38.2576 13.755 38.7826 13.3 38.8876 12.8683H40.1593C39.9726 13.9067 38.9109 14.77 37.4876 14.77ZM35.8076 11.0717H38.9343C38.8993 10.0917 38.3043 9.42667 37.4526 9.42667C36.461 9.42667 35.9476 10.0683 35.8076 11.0717ZM44.1458 14.77C42.5241 14.77 41.4391 13.4867 41.4391 11.5267C41.4391 9.59 42.5241 8.33 44.1458 8.33C44.9275 8.33 45.8141 8.77333 46.2341 9.47333V5.36668H47.5058V14.5833H46.2341V13.615C45.8258 14.3267 44.9275 14.77 44.1458 14.77ZM44.4141 13.6733C45.5225 13.6733 46.2691 12.8333 46.2691 11.5383C46.2691 10.255 45.5225 9.42667 44.4141 9.42667C43.3991 9.42667 42.7225 10.255 42.7225 11.5383C42.7225 12.8333 43.3991 13.6733 44.4141 13.6733ZM55.457 14.77C54.6753 14.77 53.777 14.3267 53.3687 13.615V14.5833H52.097V5.36668H53.3687V9.47333C53.7887 8.77333 54.6753 8.33 55.457 8.33C57.0787 8.33 58.1637 9.59 58.1637 11.5267C58.1637 13.4867 57.0787 14.77 55.457 14.77ZM55.1887 13.6733C56.2037 13.6733 56.8803 12.8333 56.8803 11.5383C56.8803 10.255 56.2037 9.42667 55.1887 9.42667C54.0803 9.42667 53.3337 10.255 53.3337 11.5383C53.3337 12.8333 54.0803 13.6733 55.1887 13.6733ZM59.2428 16.9167V15.8083C60.1178 15.8083 60.5028 15.6683 60.8528 14.7467L58.6594 8.51667H60.0361L61.5178 13.1717L62.9878 8.51667H64.3411L62.0544 14.98C61.4944 16.5667 60.7711 16.9167 59.2428 16.9167Z" fill="black"/>
<mask id="mask0_120_42" style="mask-type:luminance" maskUnits="userSpaceOnUse" x="67" y="5" width="30" height="13">
<path d="M96.093 5.36671H67.6666V17.0334H96.093V5.36671Z" fill="white"/>
</mask>
<g mask="url(#mask0_120_42)">
<path d="M71.0523 10.4977C69.9101 10.2503 69.4009 10.1535 69.4009 9.71402C69.4009 9.30061 69.7456 9.09469 70.434 9.09469C71.04 9.09469 71.4828 9.359 71.8089 9.87689C71.8334 9.91684 71.8841 9.93067 71.9255 9.90914L73.2112 9.26065C73.2573 9.23761 73.2742 9.17922 73.248 9.13465C72.7142 8.21112 71.729 7.70554 70.431 7.70554C68.726 7.70554 67.6666 8.54455 67.6666 9.8784C67.6666 11.2953 68.9564 11.6533 70.1003 11.9007C71.2448 12.1482 71.7552 12.2449 71.7552 12.6845C71.7552 13.124 71.383 13.3314 70.6405 13.3314C69.9545 13.3314 69.4458 13.0179 69.1378 12.4094C69.115 12.3648 69.0614 12.3464 69.0165 12.3694L67.7343 13.0041C67.69 13.0271 67.6713 13.0809 67.694 13.127C68.2033 14.1489 69.2475 14.7236 70.6416 14.7236C72.4179 14.7236 73.4906 13.8984 73.4906 12.5231C73.4906 11.1477 72.1945 10.7482 71.0523 10.5008V10.4977Z" fill="black"/>
<path d="M77.9409 7.7056C77.2123 7.7056 76.5677 7.96372 76.1051 8.42322C76.076 8.45087 76.0281 8.43092 76.0281 8.39096V5.45737C76.0281 5.40667 75.9885 5.36671 75.9377 5.36671H74.3295C74.2787 5.36671 74.2385 5.40667 74.2385 5.45737V14.5623C74.2385 14.613 74.2787 14.653 74.3295 14.653H75.9377C75.9885 14.653 76.0281 14.613 76.0281 14.5623V10.5684C76.0281 9.79702 76.6202 9.20541 77.4182 9.20541C78.2162 9.20541 78.7943 9.78472 78.7943 10.5684V14.5623C78.7943 14.613 78.8345 14.653 78.8853 14.653H80.4935C80.5443 14.653 80.584 14.613 80.584 14.5623V10.5684C80.584 8.89035 79.4832 7.7056 77.9409 7.7056Z" fill="black"/>
<path d="M83.8465 7.44438C82.9733 7.44438 82.1554 7.71178 81.568 8.09748C81.5278 8.12362 81.5144 8.1774 81.5389 8.21893L82.2476 9.4283C82.2739 9.47129 82.3293 9.48669 82.3719 9.46056C82.8181 9.19164 83.3285 9.05182 83.8494 9.05485C85.2535 9.05485 86.2854 10.0445 86.2854 11.3522C86.2854 12.4664 85.4594 13.2915 84.4124 13.2915C83.5589 13.2915 82.9669 12.7952 82.9669 12.0945C82.9669 11.6934 83.1378 11.3646 83.5823 11.1325C83.6284 11.1079 83.6453 11.0511 83.6173 11.0065L82.9488 9.87548C82.9272 9.83861 82.8811 9.8217 82.8397 9.83704C81.9431 10.169 81.3143 10.9681 81.3143 12.0407C81.3143 13.6634 82.6075 14.8744 84.4112 14.8744C86.5176 14.8744 88.0319 13.416 88.0319 11.3246C88.0319 9.08256 86.2697 7.44438 83.8465 7.44438Z" fill="black"/>
<path d="M92.7365 7.69172C91.9234 7.69172 91.196 7.99289 90.6657 8.52151C90.636 8.55074 90.5887 8.52921 90.5887 8.48925V7.85307C90.5887 7.80238 90.5485 7.76242 90.4977 7.76242H88.9309C88.8801 7.76242 88.8405 7.80238 88.8405 7.85307V16.9442C88.8405 16.9949 88.8801 17.0349 88.9309 17.0349H90.5391C90.5899 17.0349 90.6301 16.9949 90.6301 16.9442V13.963C90.6301 13.9231 90.678 13.9031 90.7071 13.9292C91.2356 14.4209 91.9356 14.7083 92.7365 14.7083C94.623 14.7083 96.0948 13.1823 96.0948 11.2C96.0948 9.21766 94.6219 7.69172 92.7365 7.69172ZM92.432 13.1685C91.3587 13.1685 90.5455 12.3156 90.5455 11.1877C90.5455 10.0598 91.3575 9.20693 92.432 9.20693C93.5071 9.20693 94.3174 10.0459 94.3174 11.1877C94.3174 12.3295 93.5176 13.1685 92.4303 13.1685H92.432Z" fill="black"/>
</g>
</g>
<defs>
<clipPath id="clip0_120_42">
<rect width="100.917" height="21" fill="white"/>
</clipPath>
</defs>
</svg>
